<svg width="1000" height="650" xmlns="http://www.w3.org/2000/svg">
 <metadata>Svg Vector Icons : http://www.onlinewebfonts.com/icon</metadata>

 <g>
  <title>background</title>
  <rect fill="none" id="canvas_background" height="652" width="1002" y="-1" x="-1"/>
 </g>
 <g>
  <title>Layer 1</title>
  <g id="svg_1">
   <path id="svg_2" d="m25.499993,275.899689c0,0 74.3,50.8 175,25.4c100.8,-25.4 160.7,-102.9 169.5,-106.8c8.8,-3.9 17.3,12.9 20.2,18.8c2.9,5.9 13.1,21.3 41.7,42.7c43.3,32.5 -83.3,153 -76.9,175.6c8.9,32 10,92.2 1.3,140.4c-29,30.7 -19,53.8 -20.5,58.1c-6.1,17 17.9,17.8 40.4,-22.2c13.8,-24.6 4.9,-109.6 19.4,-164c16.6,-62 105.4,-93.4 136.6,-124.7c20.5,-20.5 31.3,-49.1 49.5,-56.4c17.1,15.4 87,11.2 93,19.9c8.8,12.7 9.8,64.5 -10.8,79.2c-20.5,14.7 -12.7,13.7 -8.8,14.7c3.9,1 -1,16.6 21.5,-1.9c22.5,-18.6 37.2,-54.8 46,-77.3c8.8,-22.5 32,-21.1 54.7,-35.4c32.4,-20.5 55.2,-77 76.3,-77c2.8,0 19.6,8.8 40.1,4.9c20.5,-3.9 24.4,-13.7 46,-9.8c7,1.3 7,1.8 13.5,3.8c13.6,4.1 42.5,-17.9 29.3,-26.5c-10.4,-6.8 -12.9,-9 -29,-18.3c-5.7,-3.3 -21.4,-10.8 -24.2,-22.2c-2.5,-11.8 -32.5,-26 -47,-27.9c-14.7,-2 -14.7,-0.4 -20.6,2.5c-5.9,2.9 -72.2,-44.1 -83.1,-39.1c-11,5 9.8,49.9 43,51.8c33.2,2 21.5,2 21.5,2s-47.2,36.7 -72.6,39.7c-25.4,2.9 -53,-27.3 -75.1,-46.1c-19.3,-16.4 -85.4,-93.9 -180.1,-92.8c-106.4,1.3 -157.4,86.8 -172.7,105.6c-26.3,32.1 -114.4,146.9 -170.8,160.6c-59.3,14.4 -107.3,3.8 -138.6,-11.9c-31.2,-15.8 -38,-19.7 -7.7,14.6z"/>
  </g>
  <text font-style="normal" font-weight="bold" xml:space="preserve" text-anchor="start" font-family="'Trebuchet MS', Gadget, sans-serif" font-size="76" id="svg_4" y="595.000146" x="507.000007" stroke-width="4" stroke="#000" fill="#000000">KenguruKleo</text>
 </g>
</svg>